<?xml version="1.0" standalone="no"?>
<!DOCTYPE svg PUBLIC "-//W3C//DTD SVG 20010904//EN"
 "http://www.w3.org/TR/2001/REC-SVG-20010904/DTD/svg10.dtd">
<svg version="1.0" xmlns="http://www.w3.org/2000/svg"
 width="125.000000pt" height="125.000000pt" viewBox="0 0 125.000000 125.000000"
 preserveAspectRatio="xMidYMid meet">
<metadata>
Created by potrace 1.11, written by Peter Selinger 2001-2013
</metadata>
<g transform="translate(0.000000,125.000000) scale(0.100000,-0.100000)"
fill="#000000" stroke="none">
<path d="M500 999 c-25 -3 -50 -4 -56 -2 -7 2 -15 -1 -19 -6 -3 -6 -10 -9 -15
-6 -5 3 -34 -6 -65 -20 -91 -43 -87 -26 -84 -435 0 -69 0 -131 0 -137 -4 -68
0 -103 14 -103 17 0 23 -23 21 -78 l-2 -43 70 3 71 3 0 57 c-1 38 3 59 12 62
7 3 13 2 13 -2 0 -4 16 -7 35 -7 19 0 35 4 35 8 0 5 5 5 11 1 6 -3 41 -6 78
-4 36 1 71 2 76 1 59 -4 93 -4 101 1 25 15 40 -8 41 -62 l0 -55 72 -3 73 -3
-2 28 c-5 69 0 93 18 93 16 0 17 20 17 298 -1 303 -3 319 -42 354 -23 20 -100
46 -161 54 -68 9 -260 11 -312 3z m110 -150 c3 -4 5 -54 5 -111 l0 -103 -157
-2 -157 -2 1 27 c0 15 -1 32 -2 37 -1 6 -1 15 0 20 1 6 1 39 0 76 l-1 65 153
0 c84 0 155 -4 158 -7z m361 -6 c1 -7 1 -47 1 -88 0 -41 0 -86 -1 -100 l-1
-24 -155 0 -155 0 0 108 c0 59 2 110 4 112 3 2 72 4 155 5 117 0 151 -3 152
-13z m-588 -444 c18 -25 12 -51 -14 -68 -17 -10 -25 -9 -45 4 -28 18 -31 47
-8 69 21 22 50 20 67 -5z m454 8 c17 -18 -26 -22 -204 -21 -109 1 -200 2 -202
3 -2 0 1 7 7 14 8 9 59 12 202 11 105 -1 193 -4 197 -7z m128 -11 c8 -13 13
-30 9 -39 -6 -18 -41 -33 -64 -28 -19 4 -17 1 -25 32 -13 52 51 80 80 35z
m-129 -48 c16 -17 -12 -20 -193 -21 -176 0 -220 4 -209 21 6 10 392 9 402 0z"/>
</g>
</svg>
